<svg width="21" height="27" viewBox="0 0 21 27" fill="none" xmlns="http://www.w3.org/2000/svg">
<path  d="M10.7172 15.5758C13.1139 15.5758 15.5132 15.5952 17.9098 15.5646C18.693 15.5535 18.9512 15.6702 18.6874 16.5672C17.6988 19.9246 17.7349 19.9357 14.2358 19.9357C11.0533 19.9357 7.87354 19.9052 4.69103 19.9552C3.89124 19.9691 3.58021 19.6802 3.34138 18.9582C2.22223 15.5674 2.20001 15.5758 5.73798 15.5758C7.39866 15.5758 9.05657 15.5758 10.7172 15.5758Z" fill="#FEFDFD"/>
<path d="M10.6118 21.6072C12.3641 21.6072 14.1192 21.6627 15.8687 21.585C16.924 21.5378 17.124 21.9765 16.999 22.8902C16.8296 24.1343 16.2186 25.1174 15.1273 25.6312C12.1253 27.0419 9.05661 27.0391 6.04906 25.6534C4.84659 25.098 4.22731 24.0177 4.11623 22.6597C4.05513 21.9155 4.23842 21.5683 5.07709 21.5905C6.92106 21.6433 8.7678 21.6072 10.6118 21.6072Z" fill="#FEFEFE"/>
<path d="M14.1525 0.895911C11.7309 0.357162 9.28707 0.357162 6.86826 0.93479C2.20557 2.05117 0.0116974 5.28089 0.664306 10.063C0.775388 10.885 1.01422 11.6876 1.17251 12.5012C1.32802 13.2983 1.7307 13.6148 2.59714 13.5954C5.22979 13.5371 7.86522 13.5732 10.5006 13.5732C10.5006 13.5676 10.5006 13.5621 10.5006 13.5565C12.5335 13.5565 14.569 13.5565 16.6018 13.5565C19.9565 13.5565 19.9565 13.5565 20.4647 10.2102C21.1979 5.3642 18.9068 1.95397 14.1525 0.895911ZM16.5324 9.24097C15.9354 9.50202 15.0467 9.42703 14.4357 9.44925C13.0056 9.49646 11.9947 9.45203 10.5617 9.45203C8.80664 9.45203 7.04876 9.42426 5.29366 9.46314C4.54663 9.4798 4.32725 9.19654 4.39667 8.48283C4.56052 6.74995 5.56581 5.68634 7.11541 5.14759C9.40926 4.35335 11.7392 4.37557 14.047 5.14759C14.9467 5.44751 15.6882 5.98904 16.1992 6.80827C16.6518 7.54141 16.9184 9.07157 16.5324 9.24097Z" fill="#FEFEFE"/>
</svg>
