<svg width="18" height="20" viewBox="0 0 18 20" fill="none" xmlns="http://www.w3.org/2000/svg">
<path fill-rule="evenodd" clip-rule="evenodd" d="M5.71042 6.00001H21.2922L19.8082 15H7.1944L5.71042 6.00001Z" stroke="white" stroke-linecap="round" stroke-linejoin="round"/>
<path fill-rule="evenodd" clip-rule="evenodd" d="M9 20C9.55228 20 10 19.5523 10 19C10 18.4477 9.55228 18 9 18C8.44772 18 8 18.4477 8 19C8 19.5523 8.44772 20 9 20Z" stroke="#4F4F4F"/>
<path fill-rule="evenodd" clip-rule="evenodd" d="M18 20C18.5523 20 19 19.5523 19 19C19 18.4477 18.5523 18 18 18C17.4477 18 17 18.4477 17 19C17 19.5523 17.4477 20 18 20Z" stroke="#4F4F4F"/>
<path d="M7 6H3" stroke="#4F4F4F" stroke-linecap="round"/>
</svg>
